<?xml version="1.0" encoding="UTF-8"?><svg id="Layer_2" xmlns="http://www.w3.org/2000/svg" viewBox="0 0 344.8 48.73"><g id="Layer_1-2"><path d="M87.61,12.21h8.75c7.03,0,11.45,2.57,11.45,8.45s-4.42,8.41-11.45,8.41h-2.53v7.45h-6.23V12.22h0ZM96.45,24.01c3.48,0,4.88-.91,4.88-3.35s-1.39-3.4-4.88-3.4h-2.61v6.75h2.61Z" style="fill:#007bc5;"/><path d="M112.09,12.21h17.81v5.14h-11.59v4.27h9.28v5.05h-9.28v4.7h11.59v5.14h-17.81V12.21Z" style="fill:#007bc5;"/><path d="M134.95,12.21h8.75c7.03,0,11.45,2.57,11.45,8.45,0,1.89-.46,3.4-1.39,4.53s-2.09,1.98-3.48,2.57l5.88,8.75h-7.06l-4.7-7.45h-3.22v7.45h-6.23V12.21h0ZM143.79,24.01c3.42,0,4.88-.91,4.88-3.35s-1.46-3.4-4.88-3.4h-2.61v6.75h2.61Z" style="fill:#007bc5;"/><path d="M177.41,28.93c.24,2.26,2.22,3.35,4.83,3.35s3.7-1.02,3.7-2.31c0-1.15-.76-1.96-2.79-2.48l-4.92-1.26c-4.38-1.13-6.57-3.5-6.57-7.14,0-4.77,4.05-7.31,9.67-7.31,2.87,0,5.2.65,6.99,1.94s2.79,3.27,3.03,5.9h-6.27c-.17-2.2-1.89-3.18-4.05-3.18s-3.18.85-3.18,2.18c0,1.11.7,1.81,2.79,2.39l4.88,1.26c4.24,1.15,6.62,3.24,6.62,7.14,0,4.98-4.24,7.53-10.23,7.53-3.31,0-5.9-.72-7.77-2.16s-2.87-3.4-3.03-5.86h6.31-.01Z" style="fill:#009ee0;"/><path d="M218.47,27.37c-.46,6.23-5.05,9.58-11.23,9.58-7.27,0-11.54-4.7-11.54-12.58,0-3.98,1-7.07,3.03-9.27,2.02-2.2,4.88-3.31,8.56-3.31,6.18,0,10.73,3.35,11.19,9.58h-6.31c-.07-1.13-.48-2.11-1.28-2.94-.81-.83-1.96-1.24-3.5-1.24-4.22,0-5.22,3.66-5.22,7.18s1,7.18,5.22,7.18c1.55,0,2.7-.41,3.5-1.24.81-.83,1.22-1.81,1.28-2.94h6.31,0Z" style="fill:#009ee0;"/><path d="M223.35,12.22h6.23v9.23h9.1v-9.23h6.23v24.29h-6.23v-9.71h-9.1v9.71h-6.23V12.22h0Z" style="fill:#009ee0;"/><path d="M261.47,11.78c8.01,0,11.97,5.07,11.97,12.58s-3.96,12.58-11.97,12.58-12.02-5.07-12.02-12.58,3.96-12.58,12.02-12.58M267.04,24.36c0-3.57-1.04-7.18-5.57-7.18s-5.57,3.61-5.57,7.18,1.04,7.18,5.57,7.18,5.57-3.59,5.57-7.18Z" style="fill:#009ee0;"/><path d="M278.06,12.22h6.23v18.94h10.49v5.36h-16.72V12.23h0Z" style="fill:#009ee0;"/><path d="M306.14,12.22h6.84l8.88,24.29h-6.49l-1.35-4.01h-9.14l-1.31,4.01h-6.36l8.93-24.29h0ZM312.54,27.89l-3.13-9.53-3.09,9.53h6.23-.01Z" style="fill:#009ee0;"/><path d="M330.07,28.94c.24,2.26,2.22,3.35,4.83,3.35s3.7-1.02,3.7-2.31c0-1.15-.76-1.96-2.79-2.48l-4.92-1.26c-4.38-1.13-6.57-3.5-6.57-7.14,0-4.77,4.05-7.31,9.67-7.31,2.87,0,5.2.65,6.99,1.94s2.79,3.27,3.03,5.9h-6.27c-.17-2.2-1.89-3.18-4.05-3.18s-3.18.85-3.18,2.18c0,1.11.7,1.81,2.79,2.39l4.88,1.26c4.24,1.15,6.62,3.24,6.62,7.14,0,4.98-4.24,7.53-10.23,7.53-3.31,0-5.9-.72-7.77-2.16s-2.87-3.4-3.03-5.86h6.31-.01Z" style="fill:#009ee0;"/><polygon points="26.03 12.22 .01 12.22 0 0 26.01 0 26.03 12.22" style="fill:#009cdb;"/><path d="M26,24.16l8.91-11.81L26,0,8.88,24.16h17.12Z" style="fill:#0079c0;"/><polygon points="34.92 36.65 26.03 24.17 16.99 36.65 26.03 48.73 34.92 36.65" style="fill:#7dc5d7;"/><polygon points="8.74 48.73 26.03 48.73 16.99 36.65 .01 36.65 8.74 48.73" style="fill:#09507c;"/><polygon points="69.66 12.22 60.77 0 43.66 0 52.04 12.22 69.66 12.22" style="fill:#fec14f;"/><polygon points="43.66 0 34.92 12.34 34.92 36.63 52.04 12.22 43.66 0" style="fill:#09507c;"/><polygon points="52.2 36.65 34.92 36.65 43.64 48.73 60.89 48.73 52.2 36.65" style="fill:#ff8000;"/><polygon points="69.66 36.69 69.66 12.23 52.2 36.65 60.89 48.73 69.66 36.69" style="fill:#7dc5d7;"/></g></svg>